<svg xmlns="http://www.w3.org/2000/svg" viewBox="0 0 64 64"><defs><linearGradient id="g" x1="0" y1="0" x2="1" y2="1"><stop offset="0%" stop-color="#a855f7"/><stop offset="50%" stop-color="#3b82f6"/><stop offset="100%" stop-color="#06b6d4"/></linearGradient></defs><g><polygon points="37.97,21.20 42.18,24.01 44.45,24.22 40.32,21.47" fill="#ffffff" fill-opacity="0.70" stroke="url(#g)" stroke-width="0.3" stroke-linejoin="round" stroke-linecap="round"/><polygon points="42.67,43.95 44.94,43.67 47.58,39.14 45.37,39.31" fill="#ffffff" fill-opacity="0.70" stroke="url(#g)" stroke-width="0.3" stroke-linejoin="round" stroke-linecap="round"/><polygon points="42.18,24.01 46.48,26.88 48.67,27.02 44.45,24.22" fill="#ffffff" fill-opacity="0.70" stroke="url(#g)" stroke-width="0.3" stroke-linejoin="round" stroke-linecap="round"/><polygon points="45.37,39.31 47.58,39.14 50.27,34.55 48.11,34.60" fill="#ffffff" fill-opacity="0.70" stroke="url(#g)" stroke-width="0.3" stroke-linejoin="round" stroke-linecap="round"/><polygon points="46.48,26.88 50.89,29.83 52.99,29.89 48.67,27.02" fill="#ffffff" fill-opacity="0.70" stroke="url(#g)" stroke-width="0.3" stroke-linejoin="round" stroke-linecap="round"/><polygon points="48.11,34.60 50.27,34.55 52.99,29.89 50.89,29.83" fill="#ffffff" fill-opacity="0.70" stroke="url(#g)" stroke-width="0.3" stroke-linejoin="round" stroke-linecap="round"/><polygon points="35.51,20.91 39.79,23.79 42.18,24.01 37.97,21.20" fill="#ffffff" fill-opacity="0.70" stroke="url(#g)" stroke-width="0.3" stroke-linejoin="round" stroke-linecap="round"/><polygon points="40.29,44.24 42.67,43.95 45.37,39.31 43.04,39.49" fill="#ffffff" fill-opacity="0.70" stroke="url(#g)" stroke-width="0.3" stroke-linejoin="round" stroke-linecap="round"/><polygon points="39.79,23.79 44.18,26.74 46.48,26.88 42.18,24.01" fill="#ffffff" fill-opacity="0.70" stroke="url(#g)" stroke-width="0.3" stroke-linejoin="round" stroke-linecap="round"/><polygon points="17.43,11.62 21.58,14.44 24.47,14.90 20.40,12.15" fill="#ffffff" fill-opacity="0.70" stroke="url(#g)" stroke-width="0.3" stroke-linejoin="round" stroke-linecap="round"/><polygon points="43.04,39.49 45.37,39.31 48.11,34.60 45.84,34.66" fill="#ffffff" fill-opacity="0.70" stroke="url(#g)" stroke-width="0.3" stroke-linejoin="round" stroke-linecap="round"/><polygon points="44.18,26.74 48.67,29.76 50.89,29.83 46.48,26.88" fill="#ffffff" fill-opacity="0.70" stroke="url(#g)" stroke-width="0.3" stroke-linejoin="round" stroke-linecap="round"/><polygon points="45.84,34.66 48.11,34.60 50.89,29.83 48.67,29.76" fill="#ffffff" fill-opacity="0.70" stroke="url(#g)" stroke-width="0.3" stroke-linejoin="round" stroke-linecap="round"/><polygon points="32.91,20.60 37.27,23.56 39.79,23.79 35.51,20.91" fill="#ffffff" fill-opacity="0.70" stroke="url(#g)" stroke-width="0.3" stroke-linejoin="round" stroke-linecap="round"/><polygon points="21.58,14.44 25.82,17.33 28.64,17.72 24.47,14.90" fill="#ffffff" fill-opacity="0.70" stroke="url(#g)" stroke-width="0.3" stroke-linejoin="round" stroke-linecap="round"/><polygon points="37.79,44.56 40.29,44.24 43.04,39.49 40.59,39.67" fill="#ffffff" fill-opacity="0.70" stroke="url(#g)" stroke-width="0.3" stroke-linejoin="round" stroke-linecap="round"/><polygon points="37.27,23.56 41.75,26.58 44.18,26.74 39.79,23.79" fill="#ffffff" fill-opacity="0.70" stroke="url(#g)" stroke-width="0.3" stroke-linejoin="round" stroke-linecap="round"/><polygon points="25.82,17.33 30.17,20.28 32.91,20.60 28.64,17.72" fill="#ffffff" fill-opacity="0.70" stroke="url(#g)" stroke-width="0.3" stroke-linejoin="round" stroke-linecap="round"/><polygon points="26.82,59.48 29.62,58.77 32.30,54.10 29.55,54.69" fill="#ffffff" fill-opacity="0.70" stroke="url(#g)" stroke-width="0.3" stroke-linejoin="round" stroke-linecap="round"/><polygon points="14.31,11.06 18.52,13.95 21.58,14.44 17.43,11.62" fill="#ffffff" fill-opacity="0.70" stroke="url(#g)" stroke-width="0.3" stroke-linejoin="round" stroke-linecap="round"/><polygon points="40.59,39.67 43.04,39.49 45.84,34.66 43.44,34.72" fill="#ffffff" fill-opacity="0.70" stroke="url(#g)" stroke-width="0.3" stroke-linejoin="round" stroke-linecap="round"/><polygon points="29.55,54.69 32.30,54.10 35.02,49.37 32.33,49.83" fill="#ffffff" fill-opacity="0.70" stroke="url(#g)" stroke-width="0.3" stroke-linejoin="round" stroke-linecap="round"/><polygon points="41.75,26.58 46.33,29.68 48.67,29.76 44.18,26.74" fill="#ffffff" fill-opacity="0.70" stroke="url(#g)" stroke-width="0.3" stroke-linejoin="round" stroke-linecap="round"/><polygon points="43.44,34.72 45.84,34.66 48.67,29.76 46.33,29.68" fill="#ffffff" fill-opacity="0.70" stroke="url(#g)" stroke-width="0.3" stroke-linejoin="round" stroke-linecap="round"/><polygon points="18.52,13.95 22.84,16.91 25.82,17.33 21.58,14.44" fill="#ffffff" fill-opacity="0.70" stroke="url(#g)" stroke-width="0.3" stroke-linejoin="round" stroke-linecap="round"/><polygon points="32.33,49.83 35.02,49.37 37.79,44.56 35.14,44.89" fill="#ffffff" fill-opacity="0.70" stroke="url(#g)" stroke-width="0.3" stroke-linejoin="round" stroke-linecap="round"/><polygon points="3.20,25.90 7.30,28.98 9.93,23.88 5.77,20.84" fill="#ffffff" fill-opacity="0.70" stroke="url(#g)" stroke-width="0.3" stroke-linejoin="round" stroke-linecap="round"/><polygon points="22.84,16.91 27.27,19.94 30.17,20.28 25.82,17.33" fill="#ffffff" fill-opacity="0.70" stroke="url(#g)" stroke-width="0.3" stroke-linejoin="round" stroke-linecap="round"/><polygon points="23.86,60.22 26.82,59.48 29.55,54.69 26.65,55.30" fill="#ffffff" fill-opacity="0.70" stroke="url(#g)" stroke-width="0.3" stroke-linejoin="round" stroke-linecap="round"/><polygon points="11.01,10.47 15.30,13.43 18.52,13.95 14.31,11.06" fill="#ffffff" fill-opacity="0.70" stroke="url(#g)" stroke-width="0.3" stroke-linejoin="round" stroke-linecap="round"/><polygon points="5.77,20.84 9.93,23.88 12.59,18.70 8.37,15.70" fill="#ffffff" fill-opacity="0.70" stroke="url(#g)" stroke-width="0.3" stroke-linejoin="round" stroke-linecap="round"/><polygon points="26.65,55.30 29.55,54.69 32.33,49.83 29.48,50.31" fill="#ffffff" fill-opacity="0.70" stroke="url(#g)" stroke-width="0.3" stroke-linejoin="round" stroke-linecap="round"/><polygon points="38.65,4.63 43.32,7.53 45.80,8.21 41.23,5.38" fill="#ffffff" fill-opacity="0.70" stroke="url(#g)" stroke-width="0.3" stroke-linejoin="round" stroke-linecap="round"/><polygon points="7.30,28.98 11.50,32.14 14.19,27.00 9.93,23.88" fill="#ffffff" fill-opacity="0.70" stroke="url(#g)" stroke-width="0.3" stroke-linejoin="round" stroke-linecap="round"/><polygon points="7.78,50.44 11.99,53.88 14.69,48.90 10.41,45.50" fill="#ffffff" fill-opacity="0.70" stroke="url(#g)" stroke-width="0.3" stroke-linejoin="round" stroke-linecap="round"/><polygon points="8.37,15.70 12.59,18.70 15.30,13.43 11.01,10.47" fill="#ffffff" fill-opacity="0.70" stroke="url(#g)" stroke-width="0.3" stroke-linejoin="round" stroke-linecap="round"/><polygon points="15.30,13.43 19.70,16.47 22.84,16.91 18.52,13.95" fill="#ffffff" fill-opacity="0.70" stroke="url(#g)" stroke-width="0.3" stroke-linejoin="round" stroke-linecap="round"/><polygon points="29.48,50.31 32.33,49.83 35.14,44.89 32.35,45.24" fill="#ffffff" fill-opacity="0.70" stroke="url(#g)" stroke-width="0.3" stroke-linejoin="round" stroke-linecap="round"/><polygon points="9.93,23.88 14.19,27.00 16.92,21.78 12.59,18.70" fill="#ffffff" fill-opacity="0.70" stroke="url(#g)" stroke-width="0.3" stroke-linejoin="round" stroke-linecap="round"/><polygon points="10.41,45.50 14.69,48.90 17.43,43.84 13.09,40.48" fill="#ffffff" fill-opacity="0.70" stroke="url(#g)" stroke-width="0.3" stroke-linejoin="round" stroke-linecap="round"/><polygon points="43.87,29.60 46.33,29.68 49.27,24.57 46.87,24.34" fill="#ffffff" fill-opacity="0.70" stroke="url(#g)" stroke-width="0.3" stroke-linejoin="round" stroke-linecap="round"/><polygon points="43.32,7.53 48.11,10.51 50.48,11.12 45.80,8.21" fill="#ffffff" fill-opacity="0.70" stroke="url(#g)" stroke-width="0.3" stroke-linejoin="round" stroke-linecap="round"/><polygon points="11.50,32.14 15.80,35.38 18.56,30.20 14.19,27.00" fill="#ffffff" fill-opacity="0.70" stroke="url(#g)" stroke-width="0.3" stroke-linejoin="round" stroke-linecap="round"/><polygon points="43.87,29.60 48.67,32.87 51.03,32.86 46.33,29.68" fill="#ffffff" fill-opacity="0.70" stroke="url(#g)" stroke-width="0.3" stroke-linejoin="round" stroke-linecap="round"/><polygon points="11.99,53.88 16.31,57.39 19.08,52.38 14.69,48.90" fill="#ffffff" fill-opacity="0.70" stroke="url(#g)" stroke-width="0.3" stroke-linejoin="round" stroke-linecap="round"/><polygon points="12.59,18.70 16.92,21.78 19.70,16.47 15.30,13.43" fill="#ffffff" fill-opacity="0.70" stroke="url(#g)" stroke-width="0.3" stroke-linejoin="round" stroke-linecap="round"/><polygon points="13.09,40.48 17.43,43.84 20.22,38.70 15.80,35.38" fill="#ffffff" fill-opacity="0.70" stroke="url(#g)" stroke-width="0.3" stroke-linejoin="round" stroke-linecap="round"/><polygon points="19.70,16.47 24.22,19.58 27.27,19.94 22.84,16.91" fill="#ffffff" fill-opacity="0.70" stroke="url(#g)" stroke-width="0.3" stroke-linejoin="round" stroke-linecap="round"/><polygon points="46.87,24.34 49.27,24.57 52.26,19.37 49.92,19.00" fill="#ffffff" fill-opacity="0.70" stroke="url(#g)" stroke-width="0.3" stroke-linejoin="round" stroke-linecap="round"/><polygon points="20.74,61.00 23.86,60.22 26.65,55.30 23.58,55.95" fill="#ffffff" fill-opacity="0.70" stroke="url(#g)" stroke-width="0.3" stroke-linejoin="round" stroke-linecap="round"/><polygon points="14.19,27.00 18.56,30.20 21.37,24.93 16.92,21.78" fill="#ffffff" fill-opacity="0.70" stroke="url(#g)" stroke-width="0.3" stroke-linejoin="round" stroke-linecap="round"/><polygon points="14.69,48.90 19.08,52.38 21.89,47.29 17.43,43.84" fill="#ffffff" fill-opacity="0.70" stroke="url(#g)" stroke-width="0.3" stroke-linejoin="round" stroke-linecap="round"/><polygon points="48.11,10.51 53.02,13.57 55.29,14.10 50.48,11.12" fill="#ffffff" fill-opacity="0.70" stroke="url(#g)" stroke-width="0.3" stroke-linejoin="round" stroke-linecap="round"/><polygon points="49.23,55.29 51.59,54.66 54.61,49.67 52.32,50.17" fill="#ffffff" fill-opacity="0.70" stroke="url(#g)" stroke-width="0.3" stroke-linejoin="round" stroke-linecap="round"/><polygon points="48.67,32.87 53.60,36.22 55.85,36.12 51.03,32.86" fill="#ffffff" fill-opacity="0.70" stroke="url(#g)" stroke-width="0.3" stroke-linejoin="round" stroke-linecap="round"/><polygon points="16.31,57.39 20.74,61.00 23.58,55.95 19.08,52.38" fill="#ffffff" fill-opacity="0.70" stroke="url(#g)" stroke-width="0.3" stroke-linejoin="round" stroke-linecap="round"/><polygon points="49.92,19.00 52.26,19.37 55.29,14.10 53.02,13.57" fill="#ffffff" fill-opacity="0.70" stroke="url(#g)" stroke-width="0.3" stroke-linejoin="round" stroke-linecap="round"/><polygon points="23.58,55.95 26.65,55.30 29.48,50.31 26.46,50.82" fill="#ffffff" fill-opacity="0.70" stroke="url(#g)" stroke-width="0.3" stroke-linejoin="round" stroke-linecap="round"/><polygon points="35.93,3.84 40.70,6.82 43.32,7.53 38.65,4.63" fill="#ffffff" fill-opacity="0.70" stroke="url(#g)" stroke-width="0.3" stroke-linejoin="round" stroke-linecap="round"/><polygon points="16.92,21.78 21.37,24.93 24.22,19.58 19.70,16.47" fill="#ffffff" fill-opacity="0.70" stroke="url(#g)" stroke-width="0.3" stroke-linejoin="round" stroke-linecap="round"/><polygon points="17.43,43.84 21.89,47.29 24.75,42.11 20.22,38.70" fill="#ffffff" fill-opacity="0.70" stroke="url(#g)" stroke-width="0.3" stroke-linejoin="round" stroke-linecap="round"/><polygon points="52.32,50.17 54.61,49.67 57.68,44.61 55.46,44.96" fill="#ffffff" fill-opacity="0.70" stroke="url(#g)" stroke-width="0.3" stroke-linejoin="round" stroke-linecap="round"/><polygon points="19.08,52.38 23.58,55.95 26.46,50.82 21.89,47.29" fill="#ffffff" fill-opacity="0.70" stroke="url(#g)" stroke-width="0.3" stroke-linejoin="round" stroke-linecap="round"/><polygon points="26.46,50.82 29.48,50.31 32.35,45.24 29.40,45.61" fill="#ffffff" fill-opacity="0.70" stroke="url(#g)" stroke-width="0.3" stroke-linejoin="round" stroke-linecap="round"/><polygon points="53.60,36.22 58.65,39.66 60.80,39.46 55.85,36.12" fill="#ffffff" fill-opacity="0.70" stroke="url(#g)" stroke-width="0.3" stroke-linejoin="round" stroke-linecap="round"/><polygon points="41.26,29.52 43.87,29.60 46.87,24.34 44.32,24.11" fill="#ffffff" fill-opacity="0.70" stroke="url(#g)" stroke-width="0.3" stroke-linejoin="round" stroke-linecap="round"/><polygon points="40.70,6.82 45.59,9.87 48.11,10.51 43.32,7.53" fill="#ffffff" fill-opacity="0.70" stroke="url(#g)" stroke-width="0.3" stroke-linejoin="round" stroke-linecap="round"/><polygon points="55.46,44.96 57.68,44.61 60.80,39.46 58.65,39.66" fill="#ffffff" fill-opacity="0.70" stroke="url(#g)" stroke-width="0.3" stroke-linejoin="round" stroke-linecap="round"/><polygon points="41.26,29.52 46.17,32.88 48.67,32.87 43.87,29.60" fill="#ffffff" fill-opacity="0.70" stroke="url(#g)" stroke-width="0.3" stroke-linejoin="round" stroke-linecap="round"/><polygon points="21.89,47.29 26.46,50.82 29.40,45.61 24.75,42.11" fill="#ffffff" fill-opacity="0.70" stroke="url(#g)" stroke-width="0.3" stroke-linejoin="round" stroke-linecap="round"/><polygon points="44.32,24.11 46.87,24.34 49.92,19.00 47.44,18.60" fill="#ffffff" fill-opacity="0.70" stroke="url(#g)" stroke-width="0.3" stroke-linejoin="round" stroke-linecap="round"/><polygon points="24.22,19.58 28.85,22.78 31.82,17.30 27.11,14.15" fill="#ffffff" fill-opacity="0.70" stroke="url(#g)" stroke-width="0.3" stroke-linejoin="round" stroke-linecap="round"/><polygon points="45.59,9.87 50.61,13.01 53.02,13.57 48.11,10.51" fill="#ffffff" fill-opacity="0.70" stroke="url(#g)" stroke-width="0.3" stroke-linejoin="round" stroke-linecap="round"/><polygon points="46.74,55.96 49.23,55.29 52.32,50.17 49.90,50.69" fill="#ffffff" fill-opacity="0.70" stroke="url(#g)" stroke-width="0.3" stroke-linejoin="round" stroke-linecap="round"/><polygon points="46.17,32.88 51.20,36.33 53.60,36.22 48.67,32.87" fill="#ffffff" fill-opacity="0.70" stroke="url(#g)" stroke-width="0.3" stroke-linejoin="round" stroke-linecap="round"/><polygon points="47.44,18.60 49.92,19.00 53.02,13.57 50.61,13.01" fill="#ffffff" fill-opacity="0.70" stroke="url(#g)" stroke-width="0.3" stroke-linejoin="round" stroke-linecap="round"/><polygon points="33.05,3.00 37.92,6.05 40.70,6.82 35.93,3.84" fill="#ffffff" fill-opacity="0.70" stroke="url(#g)" stroke-width="0.3" stroke-linejoin="round" stroke-linecap="round"/><polygon points="27.11,14.15 31.82,17.30 34.85,11.72 30.06,8.62" fill="#ffffff" fill-opacity="0.70" stroke="url(#g)" stroke-width="0.3" stroke-linejoin="round" stroke-linecap="round"/><polygon points="20.98,19.21 25.71,22.49 28.85,22.78 24.22,19.58" fill="#ffffff" fill-opacity="0.70" stroke="url(#g)" stroke-width="0.3" stroke-linejoin="round" stroke-linecap="round"/><polygon points="49.90,50.69 52.32,50.17 55.46,44.96 53.11,45.33" fill="#ffffff" fill-opacity="0.70" stroke="url(#g)" stroke-width="0.3" stroke-linejoin="round" stroke-linecap="round"/><polygon points="28.85,22.78 33.61,26.06 36.66,20.53 31.82,17.30" fill="#ffffff" fill-opacity="0.70" stroke="url(#g)" stroke-width="0.3" stroke-linejoin="round" stroke-linecap="round"/><polygon points="29.40,45.61 34.17,49.19 37.23,43.85 32.38,40.30" fill="#ffffff" fill-opacity="0.70" stroke="url(#g)" stroke-width="0.3" stroke-linejoin="round" stroke-linecap="round"/><polygon points="30.06,8.62 34.85,11.72 37.92,6.05 33.05,3.00" fill="#ffffff" fill-opacity="0.70" stroke="url(#g)" stroke-width="0.3" stroke-linejoin="round" stroke-linecap="round"/><polygon points="51.20,36.33 56.38,39.88 58.65,39.66 53.60,36.22" fill="#ffffff" fill-opacity="0.70" stroke="url(#g)" stroke-width="0.3" stroke-linejoin="round" stroke-linecap="round"/><polygon points="38.49,29.43 41.26,29.52 44.32,24.11 41.63,23.86" fill="#ffffff" fill-opacity="0.70" stroke="url(#g)" stroke-width="0.3" stroke-linejoin="round" stroke-linecap="round"/><polygon points="37.92,6.05 42.92,9.19 45.59,9.87 40.70,6.82" fill="#ffffff" fill-opacity="0.70" stroke="url(#g)" stroke-width="0.3" stroke-linejoin="round" stroke-linecap="round"/><polygon points="53.11,45.33 55.46,44.96 58.65,39.66 56.38,39.88" fill="#ffffff" fill-opacity="0.70" stroke="url(#g)" stroke-width="0.3" stroke-linejoin="round" stroke-linecap="round"/><polygon points="38.49,29.43 43.51,32.89 46.17,32.88 41.26,29.52" fill="#ffffff" fill-opacity="0.70" stroke="url(#g)" stroke-width="0.3" stroke-linejoin="round" stroke-linecap="round"/><polygon points="31.82,17.30 36.66,20.53 39.76,14.91 34.85,11.72" fill="#ffffff" fill-opacity="0.70" stroke="url(#g)" stroke-width="0.3" stroke-linejoin="round" stroke-linecap="round"/><polygon points="26.27,46.00 29.40,45.61 32.38,40.30 29.31,40.54" fill="#ffffff" fill-opacity="0.70" stroke="url(#g)" stroke-width="0.3" stroke-linejoin="round" stroke-linecap="round"/><polygon points="32.38,40.30 37.23,43.85 40.34,38.42 35.41,34.91" fill="#ffffff" fill-opacity="0.70" stroke="url(#g)" stroke-width="0.3" stroke-linejoin="round" stroke-linecap="round"/><polygon points="25.71,22.49 30.57,25.87 33.61,26.06 28.85,22.78" fill="#ffffff" fill-opacity="0.70" stroke="url(#g)" stroke-width="0.3" stroke-linejoin="round" stroke-linecap="round"/><polygon points="33.61,26.06 38.49,29.43 41.63,23.86 36.66,20.53" fill="#ffffff" fill-opacity="0.70" stroke="url(#g)" stroke-width="0.3" stroke-linejoin="round" stroke-linecap="round"/><polygon points="41.63,23.86 44.32,24.11 47.44,18.60 44.82,18.18" fill="#ffffff" fill-opacity="0.70" stroke="url(#g)" stroke-width="0.3" stroke-linejoin="round" stroke-linecap="round"/><polygon points="34.17,49.19 39.07,52.88 42.21,47.50 37.23,43.85" fill="#ffffff" fill-opacity="0.70" stroke="url(#g)" stroke-width="0.3" stroke-linejoin="round" stroke-linecap="round"/><polygon points="34.85,11.72 39.76,14.91 42.92,9.19 37.92,6.05" fill="#ffffff" fill-opacity="0.70" stroke="url(#g)" stroke-width="0.3" stroke-linejoin="round" stroke-linecap="round"/><polygon points="29.31,40.54 32.38,40.30 35.41,34.91 32.41,34.99" fill="#ffffff" fill-opacity="0.70" stroke="url(#g)" stroke-width="0.3" stroke-linejoin="round" stroke-linecap="round"/><polygon points="35.41,34.91 40.34,38.42 43.51,32.89 38.49,29.43" fill="#ffffff" fill-opacity="0.70" stroke="url(#g)" stroke-width="0.3" stroke-linejoin="round" stroke-linecap="round"/><polygon points="42.92,9.19 48.06,12.42 50.61,13.01 45.59,9.87" fill="#ffffff" fill-opacity="0.70" stroke="url(#g)" stroke-width="0.3" stroke-linejoin="round" stroke-linecap="round"/><polygon points="44.10,56.67 46.74,55.96 49.90,50.69 47.33,51.24" fill="#ffffff" fill-opacity="0.70" stroke="url(#g)" stroke-width="0.3" stroke-linejoin="round" stroke-linecap="round"/><polygon points="43.51,32.89 48.67,36.45 51.20,36.33 46.17,32.88" fill="#ffffff" fill-opacity="0.70" stroke="url(#g)" stroke-width="0.3" stroke-linejoin="round" stroke-linecap="round"/><polygon points="36.66,20.53 41.63,23.86 44.82,18.18 39.76,14.91" fill="#ffffff" fill-opacity="0.70" stroke="url(#g)" stroke-width="0.3" stroke-linejoin="round" stroke-linecap="round"/><polygon points="44.82,18.18 47.44,18.60 50.61,13.01 48.06,12.42" fill="#ffffff" fill-opacity="0.70" stroke="url(#g)" stroke-width="0.3" stroke-linejoin="round" stroke-linecap="round"/><polygon points="37.23,43.85 42.21,47.50 45.41,42.02 40.34,38.42" fill="#ffffff" fill-opacity="0.70" stroke="url(#g)" stroke-width="0.3" stroke-linejoin="round" stroke-linecap="round"/><polygon points="30.57,25.87 35.56,29.34 38.49,29.43 33.61,26.06" fill="#ffffff" fill-opacity="0.70" stroke="url(#g)" stroke-width="0.3" stroke-linejoin="round" stroke-linecap="round"/><polygon points="32.41,34.99 35.41,34.91 38.49,29.43 35.56,29.34" fill="#ffffff" fill-opacity="0.70" stroke="url(#g)" stroke-width="0.3" stroke-linejoin="round" stroke-linecap="round"/><polygon points="17.55,18.80 22.37,22.18 25.71,22.49 20.98,19.21" fill="#ffffff" fill-opacity="0.70" stroke="url(#g)" stroke-width="0.3" stroke-linejoin="round" stroke-linecap="round"/><polygon points="39.07,52.88 44.10,56.67 47.33,51.24 42.21,47.50" fill="#ffffff" fill-opacity="0.70" stroke="url(#g)" stroke-width="0.3" stroke-linejoin="round" stroke-linecap="round"/><polygon points="47.33,51.24 49.90,50.69 53.11,45.33 50.62,45.72" fill="#ffffff" fill-opacity="0.70" stroke="url(#g)" stroke-width="0.3" stroke-linejoin="round" stroke-linecap="round"/><polygon points="39.76,14.91 44.82,18.18 48.06,12.42 42.92,9.19" fill="#ffffff" fill-opacity="0.70" stroke="url(#g)" stroke-width="0.3" stroke-linejoin="round" stroke-linecap="round"/><polygon points="40.34,38.42 45.41,42.02 48.67,36.45 43.51,32.89" fill="#ffffff" fill-opacity="0.70" stroke="url(#g)" stroke-width="0.3" stroke-linejoin="round" stroke-linecap="round"/><polygon points="48.67,36.45 53.97,40.10 56.38,39.88 51.20,36.33" fill="#ffffff" fill-opacity="0.70" stroke="url(#g)" stroke-width="0.3" stroke-linejoin="round" stroke-linecap="round"/><polygon points="42.21,47.50 47.33,51.24 50.62,45.72 45.41,42.02" fill="#ffffff" fill-opacity="0.70" stroke="url(#g)" stroke-width="0.3" stroke-linejoin="round" stroke-linecap="round"/><polygon points="50.62,45.72 53.11,45.33 56.38,39.88 53.97,40.10" fill="#ffffff" fill-opacity="0.70" stroke="url(#g)" stroke-width="0.3" stroke-linejoin="round" stroke-linecap="round"/><polygon points="22.94,46.41 26.27,46.00 29.31,40.54 26.05,40.79" fill="#ffffff" fill-opacity="0.70" stroke="url(#g)" stroke-width="0.3" stroke-linejoin="round" stroke-linecap="round"/><polygon points="22.37,22.18 27.34,25.66 30.57,25.87 25.71,22.49" fill="#ffffff" fill-opacity="0.70" stroke="url(#g)" stroke-width="0.3" stroke-linejoin="round" stroke-linecap="round"/><polygon points="45.41,42.02 50.62,45.72 53.97,40.10 48.67,36.45" fill="#ffffff" fill-opacity="0.70" stroke="url(#g)" stroke-width="0.3" stroke-linejoin="round" stroke-linecap="round"/><polygon points="26.05,40.79 29.31,40.54 32.41,34.99 29.22,35.06" fill="#ffffff" fill-opacity="0.70" stroke="url(#g)" stroke-width="0.3" stroke-linejoin="round" stroke-linecap="round"/><polygon points="4.99,35.64 9.66,39.28 12.66,33.57 7.91,29.99" fill="#ffffff" fill-opacity="0.70" stroke="url(#g)" stroke-width="0.3" stroke-linejoin="round" stroke-linecap="round"/><polygon points="27.34,25.66 32.44,29.24 35.56,29.34 30.57,25.87" fill="#ffffff" fill-opacity="0.70" stroke="url(#g)" stroke-width="0.3" stroke-linejoin="round" stroke-linecap="round"/><polygon points="29.22,35.06 32.41,34.99 35.56,29.34 32.44,29.24" fill="#ffffff" fill-opacity="0.70" stroke="url(#g)" stroke-width="0.3" stroke-linejoin="round" stroke-linecap="round"/><polygon points="13.90,18.38 18.83,21.86 22.37,22.18 17.55,18.80" fill="#ffffff" fill-opacity="0.70" stroke="url(#g)" stroke-width="0.3" stroke-linejoin="round" stroke-linecap="round"/><polygon points="7.91,29.99 12.66,33.57 15.72,27.77 10.88,24.23" fill="#ffffff" fill-opacity="0.70" stroke="url(#g)" stroke-width="0.3" stroke-linejoin="round" stroke-linecap="round"/><polygon points="9.66,39.28 14.47,43.01 17.55,37.26 12.66,33.57" fill="#ffffff" fill-opacity="0.70" stroke="url(#g)" stroke-width="0.3" stroke-linejoin="round" stroke-linecap="round"/><polygon points="10.88,24.23 15.72,27.77 18.83,21.86 13.90,18.38" fill="#ffffff" fill-opacity="0.70" stroke="url(#g)" stroke-width="0.3" stroke-linejoin="round" stroke-linecap="round"/><polygon points="19.41,46.85 22.94,46.41 26.05,40.79 22.59,41.05" fill="#ffffff" fill-opacity="0.70" stroke="url(#g)" stroke-width="0.3" stroke-linejoin="round" stroke-linecap="round"/><polygon points="18.83,21.86 23.90,25.44 27.34,25.66 22.37,22.18" fill="#ffffff" fill-opacity="0.70" stroke="url(#g)" stroke-width="0.3" stroke-linejoin="round" stroke-linecap="round"/><polygon points="12.66,33.57 17.55,37.26 20.70,31.40 15.72,27.77" fill="#ffffff" fill-opacity="0.70" stroke="url(#g)" stroke-width="0.3" stroke-linejoin="round" stroke-linecap="round"/><polygon points="14.47,43.01 19.41,46.85 22.59,41.05 17.55,37.26" fill="#ffffff" fill-opacity="0.70" stroke="url(#g)" stroke-width="0.3" stroke-linejoin="round" stroke-linecap="round"/><polygon points="22.59,41.05 26.05,40.79 29.22,35.06 25.82,35.15" fill="#ffffff" fill-opacity="0.70" stroke="url(#g)" stroke-width="0.3" stroke-linejoin="round" stroke-linecap="round"/><polygon points="15.72,27.77 20.70,31.40 23.90,25.44 18.83,21.86" fill="#ffffff" fill-opacity="0.70" stroke="url(#g)" stroke-width="0.3" stroke-linejoin="round" stroke-linecap="round"/><polygon points="23.90,25.44 29.12,29.13 32.44,29.24 27.34,25.66" fill="#ffffff" fill-opacity="0.70" stroke="url(#g)" stroke-width="0.3" stroke-linejoin="round" stroke-linecap="round"/><polygon points="17.55,37.26 22.59,41.05 25.82,35.15 20.70,31.40" fill="#ffffff" fill-opacity="0.70" stroke="url(#g)" stroke-width="0.3" stroke-linejoin="round" stroke-linecap="round"/><polygon points="25.82,35.15 29.22,35.06 32.44,29.24 29.12,29.13" fill="#ffffff" fill-opacity="0.70" stroke="url(#g)" stroke-width="0.3" stroke-linejoin="round" stroke-linecap="round"/><polygon points="20.70,31.40 25.82,35.15 29.12,29.13 23.90,25.44" fill="#ffffff" fill-opacity="0.70" stroke="url(#g)" stroke-width="0.3" stroke-linejoin="round" stroke-linecap="round"/></g></svg>
