<svg xmlns="http://www.w3.org/2000/svg" viewBox="0 0 32 32">
  <defs>
    <linearGradient id="g" x1="0" y1="0" x2="1" y2="1">
      <stop offset="0%" stop-color="#a855f7"/>
      <stop offset="50%" stop-color="#3b82f6"/>
      <stop offset="100%" stop-color="#06b6d4"/>
    </linearGradient>
  </defs>
  <g fill="none" stroke="url(#g)" stroke-width="0.7" stroke-linecap="round" opacity="0.9" transform="translate(16,16)">
    <line x1="-12.7" y1="2.3" x2="-5.8" y2="2.2"/>
    <line x1="-5.8" y1="2.2" x2="-4.4" y2="-4.7"/>
    <line x1="-4.4" y1="-4.7" x2="-11.5" y2="-5.1"/>
    <line x1="-11.5" y1="-5.1" x2="-12.7" y2="2.3"/>
    <line x1="-9.7" y1="6.0" x2="-2.2" y2="5.5"/>
    <line x1="-2.2" y1="5.5" x2="-0.5" y2="-2.0"/>
    <line x1="-0.5" y1="-2.0" x2="-8.2" y2="-2.2"/>
    <line x1="-8.2" y1="-2.2" x2="-9.7" y2="6.0"/>
    <line x1="-12.7" y1="2.3" x2="-9.7" y2="6.0"/>
    <line x1="-5.8" y1="2.2" x2="-2.2" y2="5.5"/>
    <line x1="-4.4" y1="-4.7" x2="-0.5" y2="-2.0"/>
    <line x1="-11.5" y1="-5.1" x2="-8.2" y2="-2.2"/>
    <line x1="-5.0" y1="2.2" x2="0.9" y2="2.0"/>
    <line x1="0.9" y1="2.0" x2="2.4" y2="-4.4"/>
    <line x1="2.4" y1="-4.4" x2="-3.6" y2="-4.7"/>
    <line x1="-3.6" y1="-4.7" x2="-5.0" y2="2.2"/>
    <line x1="-1.5" y1="5.5" x2="4.8" y2="5.1"/>
    <line x1="4.8" y1="5.1" x2="6.6" y2="-1.8"/>
    <line x1="6.6" y1="-1.8" x2="0.2" y2="-2.0"/>
    <line x1="0.2" y1="-2.0" x2="-1.5" y2="5.5"/>
    <line x1="-5.0" y1="2.2" x2="-1.5" y2="5.5"/>
    <line x1="0.9" y1="2.0" x2="4.8" y2="5.1"/>
    <line x1="2.4" y1="-4.4" x2="6.6" y2="-1.8"/>
    <line x1="-3.6" y1="-4.7" x2="0.2" y2="-2.0"/>
    <line x1="1.5" y1="2.0" x2="6.6" y2="1.9"/>
    <line x1="6.6" y1="1.9" x2="8.3" y2="-4.0"/>
    <line x1="8.3" y1="-4.0" x2="3.1" y2="-4.3"/>
    <line x1="3.1" y1="-4.3" x2="1.5" y2="2.0"/>
    <line x1="5.4" y1="5.0" x2="10.7" y2="4.7"/>
    <line x1="10.7" y1="4.7" x2="12.7" y2="-1.7"/>
    <line x1="12.7" y1="-1.7" x2="7.3" y2="-1.8"/>
    <line x1="7.3" y1="-1.8" x2="5.4" y2="5.0"/>
    <line x1="1.5" y1="2.0" x2="5.4" y2="5.0"/>
    <line x1="6.6" y1="1.9" x2="10.7" y2="4.7"/>
    <line x1="8.3" y1="-4.0" x2="12.7" y2="-1.7"/>
    <line x1="3.1" y1="-4.3" x2="7.3" y2="-1.8"/>
    <line x1="-6.5" y1="9.2" x2="-0.7" y2="8.6"/>
    <line x1="-0.7" y1="8.6" x2="0.7" y2="2.7"/>
    <line x1="0.7" y1="2.7" x2="-5.2" y2="2.9"/>
    <line x1="-5.2" y1="2.9" x2="-6.5" y2="9.2"/>
    <line x1="-3.3" y1="13.0" x2="2.9" y2="12.1"/>
    <line x1="2.9" y1="12.1" x2="4.6" y2="5.8"/>
    <line x1="4.6" y1="5.8" x2="-1.7" y2="6.3"/>
    <line x1="-1.7" y1="6.3" x2="-3.3" y2="13.0"/>
    <line x1="-6.5" y1="9.2" x2="-3.3" y2="13.0"/>
    <line x1="-0.7" y1="8.6" x2="2.9" y2="12.1"/>
    <line x1="0.7" y1="2.7" x2="4.6" y2="5.8"/>
    <line x1="-5.2" y1="2.9" x2="-1.7" y2="6.3"/>
    <line x1="-3.5" y1="-5.5" x2="2.6" y2="-5.1"/>
    <line x1="2.6" y1="-5.1" x2="4.3" y2="-12.1"/>
    <line x1="4.3" y1="-12.1" x2="-1.9" y2="-13.0"/>
    <line x1="-1.9" y1="-13.0" x2="-3.5" y2="-5.5"/>
    <line x1="0.4" y1="-2.8" x2="6.9" y2="-2.6"/>
    <line x1="6.9" y1="-2.6" x2="8.9" y2="-10.2"/>
    <line x1="8.9" y1="-10.2" x2="2.4" y2="-11.1"/>
    <line x1="2.4" y1="-11.1" x2="0.4" y2="-2.8"/>
    <line x1="-3.5" y1="-5.5" x2="0.4" y2="-2.8"/>
    <line x1="2.6" y1="-5.1" x2="6.9" y2="-2.6"/>
    <line x1="4.3" y1="-12.1" x2="8.9" y2="-10.2"/>
    <line x1="-1.9" y1="-13.0" x2="2.4" y2="-11.1"/>
    <line x1="-8.3" y1="-0.9" x2="-2.7" y2="-0.8"/>
    <line x1="-2.7" y1="-0.8" x2="-1.4" y2="-6.7"/>
    <line x1="-1.4" y1="-6.7" x2="-7.1" y2="-7.1"/>
    <line x1="-7.1" y1="-7.1" x2="-8.3" y2="-0.9"/>
    <line x1="-5.4" y1="1.8" x2="0.5" y2="1.7"/>
    <line x1="0.5" y1="1.7" x2="2.0" y2="-4.6"/>
    <line x1="2.0" y1="-4.6" x2="-4.0" y2="-5.0"/>
    <line x1="-4.0" y1="-5.0" x2="-5.4" y2="1.8"/>
    <line x1="-8.3" y1="-0.9" x2="-5.4" y2="1.8"/>
    <line x1="-2.7" y1="-0.8" x2="0.5" y2="1.7"/>
    <line x1="-1.4" y1="-6.7" x2="2.0" y2="-4.6"/>
    <line x1="-7.1" y1="-7.1" x2="-4.0" y2="-5.0"/>
    <line x1="-1.0" y1="5.9" x2="5.2" y2="5.5"/>
    <line x1="5.2" y1="5.5" x2="7.2" y2="-1.5"/>
    <line x1="7.2" y1="-1.5" x2="0.7" y2="-1.6"/>
    <line x1="0.7" y1="-1.6" x2="-1.0" y2="5.9"/>
    <line x1="3.4" y1="10.1" x2="10.1" y2="9.3"/>
    <line x1="10.1" y1="9.3" x2="12.4" y2="1.7"/>
    <line x1="12.4" y1="1.7" x2="5.7" y2="1.8"/>
    <line x1="5.7" y1="1.8" x2="3.4" y2="10.1"/>
    <line x1="-1.0" y1="5.9" x2="3.4" y2="10.1"/>
    <line x1="5.2" y1="5.5" x2="10.1" y2="9.3"/>
    <line x1="7.2" y1="-1.5" x2="12.4" y2="1.7"/>
    <line x1="0.7" y1="-1.6" x2="5.7" y2="1.8"/>
  </g>
</svg>